<svg width="44" height="44" viewBox="0 0 44 44" fill="none" xmlns="http://www.w3.org/2000/svg">
<g clip-path="url(#clip0_373_359)">
<path fill-rule="evenodd" clip-rule="evenodd" d="M25.5846 38.1143C25.0716 38.779 24.0371 38.8275 23.3386 38.2885L19.5386 35.3559C19.377 35.2372 19.241 35.0871 19.1387 34.9147C19.0364 34.7422 18.9698 34.551 18.943 34.3522C18.9162 34.1535 18.9296 33.9515 18.9826 33.7581C19.0356 33.5647 19.1269 33.3839 19.2513 33.2266L22.0442 29.6076C22.1652 29.4458 22.3173 29.3099 22.4916 29.2078C22.6659 29.1057 22.8589 29.0395 23.0591 29.0131C23.2594 28.9866 23.4629 29.0006 23.6578 29.054C23.8526 29.1074 24.0347 29.1993 24.1935 29.3241L27.9935 32.2567C28.6932 32.7967 28.8905 33.8305 28.3775 34.4952L25.5846 38.1143ZM29.8555 29.844L26.0555 26.9115C23.9564 25.2915 21.0535 25.6536 19.5109 27.6525L16.7179 31.2716C15.1753 33.2705 15.5776 36.1487 17.6767 37.7686L21.4767 40.7012C23.5757 42.3211 26.5753 42.0682 28.1179 40.0693L30.9108 36.4503C32.4535 34.4514 31.9545 31.4639 29.8555 29.844ZM11.6513 27.3615C11.1383 28.0262 10.1038 28.0747 9.4053 27.5357L5.60531 24.6031C5.44373 24.4843 5.30772 24.3343 5.20539 24.1619C5.10305 23.9894 5.03649 23.7982 5.00967 23.5994C4.98286 23.4007 4.99633 23.1987 5.04929 23.0053C5.10226 22.8119 5.19362 22.6311 5.31794 22.4738L8.11088 18.8548C8.23186 18.693 8.38398 18.5571 8.55828 18.455C8.73259 18.3529 8.92556 18.2867 9.12583 18.2603C9.3261 18.2338 9.52963 18.2478 9.72445 18.3012C9.91926 18.3546 10.1014 18.4465 10.2602 18.5713L14.0602 21.5039C14.7599 22.0439 14.9572 23.0777 14.4442 23.7424L11.6513 27.3615ZM15.9222 19.0912L12.1222 16.1586C10.0231 14.5387 7.12018 14.9008 5.57755 16.8997L2.78461 20.5188C1.24198 22.5177 1.64431 25.3959 3.74335 27.0158L7.54335 29.9484C9.64239 31.5683 12.642 31.3154 14.1846 29.3165L16.9775 25.6975C18.5202 23.6986 18.0212 20.7111 15.9222 19.0912ZM35.8253 24.8444C35.3124 25.5091 34.2779 25.5577 33.5794 25.0186L29.7794 22.0861C29.6178 21.9673 29.4818 21.8173 29.3795 21.6448C29.2771 21.4724 29.2106 21.2811 29.1838 21.0824C29.1569 20.8837 29.1704 20.6816 29.2234 20.4883C29.2763 20.2949 29.3677 20.1141 29.492 19.9568L32.285 16.3378C32.4059 16.176 32.5581 16.0401 32.7324 15.9379C32.9067 15.8358 33.0996 15.7696 33.2999 15.7432C33.5002 15.7168 33.7037 15.7307 33.8985 15.7842C34.0933 15.8376 34.2755 15.9294 34.4343 16.0543L38.2343 18.9869C38.934 19.5269 39.1312 20.5607 38.6183 21.2254L35.8253 24.8444ZM40.0962 16.5742L36.2962 13.6416C34.1972 12.0217 31.2943 12.3838 29.7516 14.3827L26.9587 18.0017C25.4161 20.0007 25.8184 22.8789 27.9174 24.4988L31.7174 27.4313C33.8165 29.0512 36.816 28.7984 38.3587 26.7995L41.1516 23.1805C42.6942 21.1815 42.1953 18.1941 40.0962 16.5742ZM21.892 14.0916C21.3791 14.7563 20.3445 14.8049 19.6461 14.2658L15.8461 11.3333C15.6845 11.2145 15.5485 11.0645 15.4462 10.892C15.3438 10.7196 15.2773 10.5283 15.2504 10.3296C15.2236 10.1309 15.2371 9.92884 15.2901 9.73545C15.343 9.54206 15.4344 9.36131 15.5587 9.204L18.3516 5.58495C18.4726 5.42318 18.6247 5.28725 18.7991 5.18515C18.9734 5.08304 19.1663 5.01684 19.3666 4.99043C19.5669 4.96402 19.7704 4.97794 19.9652 5.03136C20.16 5.08479 20.3422 5.17664 20.501 5.30152L24.301 8.2341C25.0006 8.77407 25.1979 9.8079 24.685 10.4726L21.892 14.0916ZM26.1629 5.82141L22.3629 2.88883C20.2639 1.26892 17.3609 1.63098 15.8183 3.6299L13.0254 7.24894C11.4827 9.24786 11.8851 12.1261 13.9841 13.746L17.7841 16.6785C19.8832 18.2984 22.8827 18.0456 24.4254 16.0467L27.2183 12.4276C28.7609 10.4287 28.262 7.44131 26.1629 5.82141Z" fill="#FF3F3F"/>
</g>
<defs>
<clipPath id="clip0_373_359">
<rect width="32" height="30.4762" fill="white" transform="translate(18.6196) rotate(37.6586)"/>
</clipPath>
</defs>
</svg>
