<svg width="32" height="32" viewBox="0 0 32 32" fill="none" xmlns="http://www.w3.org/2000/svg">
<g id="Menu" clip-path="url(#clip0_360_213)">
<path id="Vector" fill-rule="evenodd" clip-rule="evenodd" d="M28.8 26.6804C28.8 27.5201 28.0107 28.1905 27.1284 28.1905H22.3284C22.1279 28.1953 21.9286 28.1596 21.7422 28.0856C21.5558 28.0116 21.3863 27.9008 21.2437 27.7599C21.101 27.619 20.9882 27.4508 20.912 27.2653C20.8358 27.0798 20.7977 26.8809 20.8 26.6804V22.109C20.7969 21.907 20.8343 21.7065 20.9099 21.5192C20.9855 21.3318 21.0979 21.1615 21.2403 21.0183C21.3827 20.875 21.5523 20.7617 21.7392 20.6849C21.9261 20.6082 22.1264 20.5696 22.3284 20.5715H27.1284C28.0122 20.5715 28.8 21.2694 28.8 22.109V26.6804ZM27.1284 17.5239H22.3284C19.677 17.5239 17.6 19.5841 17.6 22.109V26.6804C17.6 29.2054 19.677 31.2382 22.3284 31.2382H27.1284C29.7798 31.2382 32 29.2054 32 26.6804V22.109C32 19.5841 29.7798 17.5239 27.1284 17.5239ZM11.2 26.6804C11.2 27.5201 10.4107 28.1905 9.52838 28.1905H4.72838C4.52793 28.1953 4.32857 28.1596 4.14221 28.0856C3.95585 28.0116 3.7863 27.9008 3.64366 27.7599C3.50103 27.619 3.38824 27.4508 3.31201 27.2653C3.23579 27.0798 3.19769 26.8809 3.2 26.6804V22.109C3.19694 21.907 3.23432 21.7065 3.30993 21.5192C3.38554 21.3318 3.49786 21.1615 3.64027 21.0183C3.78269 20.875 3.95232 20.7617 4.13919 20.6849C4.32606 20.6082 4.52638 20.5696 4.72838 20.5715H9.52838C10.4122 20.5715 11.2 21.2694 11.2 22.109V26.6804ZM9.52838 17.5239H4.72838C2.07695 17.5239 0 19.5841 0 22.109V26.6804C0 29.2054 2.07695 31.2382 4.72838 31.2382H9.52838C12.1798 31.2382 14.4 29.2054 14.4 26.6804V22.109C14.4 19.5841 12.1798 17.5239 9.52838 17.5239ZM28.8 9.91853C28.8 10.7582 28.0107 11.4286 27.1284 11.4286H22.3284C22.1279 11.4333 21.9286 11.3977 21.7422 11.3237C21.5558 11.2497 21.3863 11.1389 21.2437 10.998C21.101 10.8571 20.9882 10.6889 20.912 10.5034C20.8358 10.3179 20.7977 10.119 20.8 9.91853V5.34711C20.7969 5.14512 20.8343 4.94457 20.9099 4.75725C20.9855 4.56992 21.0979 4.39962 21.2403 4.25635C21.3827 4.11309 21.5523 3.99976 21.7392 3.92303C21.9261 3.8463 22.1264 3.80773 22.3284 3.80958H27.1284C28.0122 3.80958 28.8 4.50749 28.8 5.34711V9.91853ZM27.1284 0.761963H22.3284C19.677 0.761963 17.6 2.82215 17.6 5.34711V9.91853C17.6 12.4435 19.677 14.4762 22.3284 14.4762H27.1284C29.7798 14.4762 32 12.4435 32 9.91853V5.34711C32 2.82215 29.7798 0.761963 27.1284 0.761963ZM11.2 9.91853C11.2 10.7582 10.4107 11.4286 9.52838 11.4286H4.72838C4.52793 11.4333 4.32857 11.3977 4.14221 11.3237C3.95585 11.2497 3.7863 11.1389 3.64366 10.998C3.50103 10.8571 3.38824 10.6889 3.31201 10.5034C3.23579 10.3179 3.19769 10.119 3.2 9.91853V5.34711C3.19694 5.14512 3.23432 4.94457 3.30993 4.75725C3.38554 4.56992 3.49786 4.39962 3.64027 4.25635C3.78269 4.11309 3.95232 3.99976 4.13919 3.92303C4.32606 3.8463 4.52638 3.80773 4.72838 3.80958H9.52838C10.4122 3.80958 11.2 4.50749 11.2 5.34711V9.91853ZM9.52838 0.761963H4.72838C2.07695 0.761963 0 2.82215 0 5.34711V9.91853C0 12.4435 2.07695 14.4762 4.72838 14.4762H9.52838C12.1798 14.4762 14.4 12.4435 14.4 9.91853V5.34711C14.4 2.82215 12.1798 0.761963 9.52838 0.761963Z" fill="#E8FF8F"/>
</g>
<defs>
<clipPath id="clip0_360_213">
<rect width="32" height="30.4762" fill="white" transform="translate(0 0.761963)"/>
</clipPath>
</defs>
</svg>
