<svg width="60" height="64" viewBox="0 0 60 64" fill="none" xmlns="http://www.w3.org/2000/svg">
<rect width="60" height="63.2897" rx="4" fill="black"/>
<path d="M31.6449 8C18.6063 8 8 18.6073 8 31.6448C8 44.6824 18.6063 55.2897 31.6449 55.2897C32.2134 55.2897 32.6729 54.8291 32.6729 54.2617V46.0374C32.6729 45.4699 32.2134 45.0093 31.6449 45.0093C24.2759 45.0093 18.2804 39.0138 18.2804 31.6448C18.2804 24.2759 24.2759 18.2804 31.6449 18.2804C32.2134 18.2804 32.6729 17.8198 32.6729 17.2523V9.02804C32.6729 8.46056 32.2134 8 31.6449 8Z" fill="#F5C754"/>
<path fill-rule="evenodd" clip-rule="evenodd" d="M34.9861 27.5332C31.8918 27.5332 29.3833 30.0417 29.3833 33.136C29.3833 36.2303 31.8918 38.7388 34.9861 38.7388H52.0001V37.5332C52.0001 32.0104 47.523 27.5332 42.0001 27.5332H34.9861ZM52.0002 38.7391H40.7946V44.6503C40.7946 47.7446 43.3031 50.2531 46.3974 50.2531C49.4918 50.2531 52.0002 47.7446 52.0002 44.6503V38.7391Z" fill="#F7FAFA"/>
</svg>
