<svg width="55" height="58" viewBox="0 0 55 58" fill="none" xmlns="http://www.w3.org/2000/svg">
<rect width="55" height="57.3177" rx="27.5" fill="black"/>
<path d="M28.6589 12C19.4726 12 12 19.4733 12 28.6589C12 37.8444 19.4726 45.3177 28.6589 45.3177C29.0594 45.3177 29.3832 44.9933 29.3832 44.5934V38.7991C29.3832 38.3992 29.0594 38.0748 28.6589 38.0748C23.4671 38.0748 19.243 33.8506 19.243 28.6589C19.243 23.4671 23.4671 19.243 28.6589 19.243C29.0594 19.243 29.3832 18.9185 29.3832 18.5187V12.7243C29.3832 12.3245 29.0594 12 28.6589 12Z" fill="#F5C754"/>
<path fill-rule="evenodd" clip-rule="evenodd" d="M31.013 25.7622C28.8329 25.7622 27.0656 27.5295 27.0656 29.7096C27.0656 31.8897 28.8329 33.6571 31.013 33.6571H35.1053V37.8216C35.1053 40.0017 36.8726 41.769 39.0527 41.769C41.2328 41.769 43.0001 40.0017 43.0001 37.8216V33.6571H43.0001C43.0001 29.2969 39.4655 25.7622 35.1053 25.7622H31.013Z" fill="#F7FAFA"/>
</svg>
