<svg width="203" height="72" viewBox="0 0 203 72" fill="none" xmlns="http://www.w3.org/2000/svg">
<path d="M23.6449 12.3552C10.6063 12.3552 0 22.9625 0 36.0001C0 49.0376 10.6063 59.6449 23.6449 59.6449C24.2134 59.6449 24.6729 59.1844 24.6729 58.6169V50.3926C24.6729 49.8251 24.2134 49.3646 23.6449 49.3646C16.2759 49.3646 10.2804 43.369 10.2804 36.0001C10.2804 28.6311 16.2759 22.6356 23.6449 22.6356C24.2134 22.6356 24.6729 22.175 24.6729 21.6076V13.3833C24.6729 12.8158 24.2134 12.3552 23.6449 12.3552Z" fill="#F5C754"/>
<path fill-rule="evenodd" clip-rule="evenodd" d="M26.9861 31.8884C23.8918 31.8884 21.3833 34.3969 21.3833 37.4912C21.3833 40.5856 23.8918 43.094 26.9861 43.094H44.0001V41.8884C44.0001 36.3656 39.523 31.8884 34.0001 31.8884H26.9861ZM44.0002 43.0943H32.7946V49.0055C32.7946 52.0999 35.3031 54.6083 38.3974 54.6083C41.4918 54.6083 44.0002 52.0999 44.0002 49.0055V43.0943Z" fill="#F7FAFA"/>
<path d="M49.168 53V19.4H63.76C65.872 19.4 67.712 19.768 69.28 20.504C70.848 21.24 72.064 22.28 72.928 23.624C73.792 24.968 74.224 26.552 74.224 28.376V28.952C74.224 30.968 73.744 32.6 72.784 33.848C71.824 35.096 70.64 36.008 69.232 36.584V37.448C70.512 37.512 71.504 37.96 72.208 38.792C72.912 39.592 73.264 40.664 73.264 42.008V53H66.928V42.92C66.928 42.152 66.72 41.528 66.304 41.048C65.92 40.568 65.264 40.328 64.336 40.328H55.504V53H49.168ZM55.504 34.568H63.088C64.592 34.568 65.76 34.168 66.592 33.368C67.456 32.536 67.888 31.448 67.888 30.104V29.624C67.888 28.28 67.472 27.208 66.64 26.408C65.808 25.576 64.624 25.16 63.088 25.16H55.504V34.568ZM76.9221 53L85.7541 19.4H96.7941L105.626 53H99.0981L97.2741 45.608H85.2741L83.4501 53H76.9221ZM86.7621 39.752H95.7861L91.7061 23.384H90.8421L86.7621 39.752ZM109.378 53V19.4H130.498V25.16H115.714V33.272H129.346V39.032H115.714V53H109.378ZM142.525 53V25.16H132.733V19.4H158.653V25.16H148.861V53H142.525ZM162.697 53V19.4H169.033V53H162.697ZM187.852 53.672C183.692 53.672 180.396 52.52 177.964 50.216C175.532 47.88 174.316 44.552 174.316 40.232V32.168C174.316 27.848 175.532 24.536 177.964 22.232C180.396 19.896 183.692 18.728 187.852 18.728C191.98 18.728 195.164 19.864 197.404 22.136C199.676 24.376 200.812 27.464 200.812 31.4V31.688H194.572V31.208C194.572 29.224 194.012 27.592 192.892 26.312C191.804 25.032 190.124 24.392 187.852 24.392C185.612 24.392 183.852 25.08 182.572 26.456C181.292 27.832 180.652 29.704 180.652 32.072V40.328C180.652 42.664 181.292 44.536 182.572 45.944C183.852 47.32 185.612 48.008 187.852 48.008C190.124 48.008 191.804 47.368 192.892 46.088C194.012 44.776 194.572 43.144 194.572 41.192V40.328H200.812V41C200.812 44.936 199.676 48.04 197.404 50.312C195.164 52.552 191.98 53.672 187.852 53.672Z" fill="#F7FAFA"/>
</svg>
